<svg xmlns="http://www.w3.org/2000/svg" viewBox="0 10.690000534057617 22 34.6200065612793" data-asc="0.89111328125"><g fill="#ffffff"><g fill="#ffffff" transform="translate(0, 0)"><path d="M19.80 10.69L19.80 22.14L18.90 22.14Q18.46 18.85 17.32 16.89Q16.19 14.94 14.09 13.79Q11.99 12.65 9.74 12.65Q7.20 12.65 5.54 14.20Q3.88 15.75 3.88 17.72Q3.88 19.24 4.93 20.48Q6.45 22.31 12.13 25.37Q16.77 27.86 18.47 29.19Q20.17 30.52 21.08 32.32Q22.00 34.13 22.00 36.11Q22.00 39.87 19.08 42.59Q16.16 45.31 11.57 45.31Q10.13 45.31 8.86 45.09Q8.11 44.97 5.73 44.20Q3.34 43.43 2.71 43.43Q2.10 43.43 1.75 43.80Q1.39 44.17 1.22 45.31L0.32 45.31L0.32 33.96L1.22 33.96Q1.86 37.52 2.93 39.29Q4.00 41.06 6.21 42.24Q8.42 43.41 11.06 43.41Q14.11 43.41 15.88 41.80Q17.65 40.19 17.65 37.99Q17.65 36.77 16.98 35.52Q16.31 34.28 14.89 33.20Q13.94 32.47 9.69 30.09Q5.44 27.71 3.65 26.29Q1.86 24.88 0.93 23.17Q0 21.46 0 19.41Q0 15.84 2.73 13.27Q5.47 10.69 9.69 10.69Q12.33 10.69 15.28 11.99Q16.65 12.60 17.21 12.60Q17.85 12.60 18.25 12.22Q18.65 11.84 18.90 10.69L19.80 10.69Z"/></g></g></svg>