<svg xmlns="http://www.w3.org/2000/svg" viewBox="0 9.84000015258789 229.44000244140625 35.470001220703125" data-asc="0.89111328125"><g fill="#ffffff"><g fill="#ffffff" transform="translate(0, 0)"><path d="M19.80 10.69L19.80 22.14L18.90 22.14Q18.46 18.85 17.32 16.89Q16.19 14.94 14.09 13.79Q11.99 12.65 9.74 12.65Q7.20 12.65 5.54 14.20Q3.88 15.75 3.88 17.72Q3.88 19.24 4.93 20.48Q6.45 22.31 12.13 25.37Q16.77 27.86 18.47 29.19Q20.17 30.52 21.08 32.32Q22.00 34.13 22.00 36.11Q22.00 39.87 19.08 42.59Q16.16 45.31 11.57 45.31Q10.13 45.31 8.86 45.09Q8.11 44.97 5.73 44.20Q3.34 43.43 2.71 43.43Q2.10 43.43 1.75 43.80Q1.39 44.17 1.22 45.31L0.32 45.31L0.32 33.96L1.22 33.96Q1.86 37.52 2.93 39.29Q4.00 41.06 6.21 42.24Q8.42 43.41 11.06 43.41Q14.11 43.41 15.88 41.80Q17.65 40.19 17.65 37.99Q17.65 36.77 16.98 35.52Q16.31 34.28 14.89 33.20Q13.94 32.47 9.69 30.09Q5.44 27.71 3.65 26.29Q1.86 24.88 0.93 23.17Q0 21.46 0 19.41Q0 15.84 2.73 13.27Q5.47 10.69 9.69 10.69Q12.33 10.69 15.28 11.99Q16.65 12.60 17.21 12.60Q17.85 12.60 18.25 12.22Q18.65 11.84 18.90 10.69L19.80 10.69ZM37.18 21.53Q42.26 21.53 45.34 25.39Q47.95 28.69 47.95 32.96Q47.95 35.96 46.51 39.04Q45.07 42.11 42.54 43.68Q40.01 45.24 36.91 45.24Q31.86 45.24 28.88 41.21Q26.37 37.82 26.37 33.59Q26.37 30.52 27.89 27.48Q29.42 24.44 31.91 22.99Q34.40 21.53 37.18 21.53M36.43 23.12Q35.13 23.12 33.83 23.89Q32.52 24.66 31.71 26.59Q30.91 28.52 30.91 31.54Q30.91 36.43 32.85 39.97Q34.79 43.51 37.96 43.51Q40.33 43.51 41.87 41.55Q43.41 39.60 43.41 34.84Q43.41 28.88 40.84 25.46Q39.11 23.12 36.43 23.12ZM57.76 26.27Q61.69 21.53 65.26 21.53Q67.09 21.53 68.41 22.45Q69.73 23.36 70.51 25.46Q71.04 26.93 71.04 29.96L71.04 39.50Q71.04 41.63 71.39 42.38Q71.66 42.99 72.25 43.33Q72.85 43.68 74.46 43.68L74.46 44.56L63.40 44.56L63.40 43.68L63.87 43.68Q65.43 43.68 66.05 43.20Q66.67 42.72 66.92 41.80Q67.02 41.43 67.02 39.50L67.02 30.35Q67.02 27.29 66.22 25.92Q65.43 24.54 63.55 24.54Q60.64 24.54 57.76 27.71L57.76 39.50Q57.76 41.77 58.03 42.31Q58.37 43.02 58.97 43.35Q59.57 43.68 61.40 43.68L61.40 44.56L50.34 44.56L50.34 43.68L50.83 43.68Q52.54 43.68 53.14 42.81Q53.74 41.94 53.74 39.50L53.74 31.20Q53.74 27.17 53.55 26.29Q53.37 25.42 52.99 25.10Q52.61 24.78 51.98 24.78Q51.29 24.78 50.34 25.15L49.98 24.27L56.71 21.53L57.76 21.53L57.76 26.27ZM81.93 9.84Q82.96 9.84 83.68 10.56Q84.40 11.28 84.40 12.30Q84.40 13.33 83.68 14.06Q82.96 14.79 81.93 14.79Q80.91 14.79 80.18 14.06Q79.44 13.33 79.44 12.30Q79.44 11.28 80.16 10.56Q80.88 9.84 81.93 9.84M83.96 21.53L83.96 39.50Q83.96 41.60 84.27 42.30Q84.57 42.99 85.17 43.33Q85.77 43.68 87.35 43.68L87.35 44.56L76.49 44.56L76.49 43.68Q78.13 43.68 78.69 43.36Q79.25 43.04 79.58 42.31Q79.91 41.58 79.91 39.50L79.91 30.88Q79.91 27.25 79.69 26.17Q79.52 25.39 79.15 25.09Q78.78 24.78 78.15 24.78Q77.47 24.78 76.49 25.15L76.15 24.27L82.89 21.53L83.96 21.53ZM109.13 36.06Q108.23 40.48 105.59 42.86Q102.95 45.24 99.76 45.24Q95.95 45.24 93.12 42.04Q90.28 38.84 90.28 33.40Q90.28 28.13 93.42 24.83Q96.56 21.53 100.95 21.53Q104.25 21.53 106.37 23.28Q108.50 25.02 108.50 26.90Q108.50 27.83 107.90 28.41Q107.30 28.98 106.23 28.98Q104.79 28.98 104.05 28.05Q103.64 27.54 103.50 26.10Q103.37 24.66 102.51 23.90Q101.66 23.17 100.15 23.17Q97.71 23.17 96.22 24.98Q94.24 27.37 94.24 31.30Q94.24 35.30 96.20 38.37Q98.17 41.43 101.51 41.43Q103.91 41.43 105.81 39.79Q107.15 38.67 108.42 35.72L109.13 36.06ZM139.70 11.45L140.06 19.21L139.14 19.21Q138.87 17.16 138.40 16.28Q137.65 14.87 136.39 14.20Q135.13 13.53 133.08 13.53L128.42 13.53L128.42 38.82Q128.42 41.87 129.08 42.63Q130.00 43.65 131.93 43.65L133.08 43.65L133.08 44.56L119.04 44.56L119.04 43.65L120.21 43.65Q122.31 43.65 123.19 42.38Q123.73 41.60 123.73 38.82L123.73 13.53L119.75 13.53Q117.43 13.53 116.46 13.87Q115.19 14.33 114.28 15.65Q113.38 16.97 113.21 19.21L112.28 19.21L112.67 11.45L139.70 11.45ZM160.72 22.19L160.72 35.74Q160.72 39.62 160.90 40.49Q161.08 41.36 161.49 41.70Q161.89 42.04 162.43 42.04Q163.18 42.04 164.14 41.63L164.48 42.48L157.79 45.24L156.69 45.24L156.69 40.50Q153.81 43.63 152.29 44.43Q150.78 45.24 149.10 45.24Q147.22 45.24 145.84 44.15Q144.46 43.07 143.92 41.36Q143.38 39.65 143.38 36.52L143.38 26.54Q143.38 24.95 143.04 24.34Q142.70 23.73 142.03 23.40Q141.36 23.07 139.60 23.10L139.60 22.19L147.44 22.19L147.44 37.16Q147.44 40.28 148.52 41.26Q149.61 42.24 151.15 42.24Q152.20 42.24 153.53 41.58Q154.86 40.92 156.69 39.06L156.69 26.39Q156.69 24.49 155.99 23.82Q155.30 23.14 153.10 23.10L153.10 22.19L160.72 22.19ZM172.63 26.27Q176.56 21.53 180.13 21.53Q181.96 21.53 183.28 22.45Q184.59 23.36 185.38 25.46Q185.91 26.93 185.91 29.96L185.91 39.50Q185.91 41.63 186.25 42.38Q186.52 42.99 187.12 43.33Q187.72 43.68 189.33 43.68L189.33 44.56L178.27 44.56L178.27 43.68L178.74 43.68Q180.30 43.68 180.92 43.20Q181.54 42.72 181.79 41.80Q181.88 41.43 181.88 39.50L181.88 30.35Q181.88 27.29 181.09 25.92Q180.30 24.54 178.42 24.54Q175.51 24.54 172.63 27.71L172.63 39.50Q172.63 41.77 172.90 42.31Q173.24 43.02 173.84 43.35Q174.44 43.68 176.27 43.68L176.27 44.56L165.21 44.56L165.21 43.68L165.70 43.68Q167.41 43.68 168.01 42.81Q168.60 41.94 168.60 39.50L168.60 31.20Q168.60 27.17 168.42 26.29Q168.24 25.42 167.86 25.10Q167.48 24.78 166.85 24.78Q166.16 24.78 165.21 25.15L164.84 24.27L171.58 21.53L172.63 21.53L172.63 26.27ZM194.87 30.62Q194.85 35.60 197.29 38.43Q199.73 41.26 203.03 41.26Q205.22 41.26 206.85 40.05Q208.47 38.84 209.57 35.91L210.33 36.40Q209.81 39.75 207.35 42.49Q204.88 45.24 201.17 45.24Q197.14 45.24 194.27 42.10Q191.41 38.96 191.41 33.67Q191.41 27.93 194.35 24.72Q197.29 21.51 201.73 21.51Q205.49 21.51 207.91 23.99Q210.33 26.46 210.33 30.62L194.87 30.62M194.87 29.20L205.22 29.20Q205.10 27.05 204.71 26.17Q204.10 24.80 202.89 24.02Q201.68 23.24 200.37 23.24Q198.34 23.24 196.74 24.82Q195.14 26.39 194.87 29.20ZM227.76 21.53L227.76 29.15L226.95 29.15Q226.03 25.56 224.57 24.27Q223.12 22.97 220.87 22.97Q219.17 22.97 218.12 23.88Q217.07 24.78 217.07 25.88Q217.07 27.25 217.85 28.22Q218.60 29.22 220.92 30.35L224.49 32.08Q229.44 34.50 229.44 38.45Q229.44 41.50 227.14 43.37Q224.83 45.24 221.97 45.24Q219.92 45.24 217.29 44.51Q216.48 44.26 215.97 44.26Q215.41 44.26 215.09 44.90L214.28 44.90L214.28 36.91L215.09 36.91Q215.77 40.33 217.70 42.07Q219.63 43.80 222.02 43.80Q223.71 43.80 224.77 42.81Q225.83 41.82 225.83 40.43Q225.83 38.75 224.65 37.60Q223.46 36.45 219.92 34.69Q216.38 32.93 215.28 31.52Q214.18 30.13 214.18 28.00Q214.18 25.24 216.08 23.39Q217.97 21.53 220.97 21.53Q222.29 21.53 224.17 22.09Q225.42 22.46 225.83 22.46Q226.22 22.46 226.44 22.29Q226.66 22.12 226.95 21.53L227.76 21.53Z"/></g></g></svg>